<?xml version="1.0" encoding="UTF-8" standalone="no"?>
<!DOCTYPE svg PUBLIC "-//W3C//DTD SVG 1.1//EN" "http://www.w3.org/Graphics/SVG/1.1/DTD/svg11.dtd">
<svg version="1.1" xmlns="http://www.w3.org/2000/svg" xmlns:xlink="http://www.w3.org/1999/xlink" preserveAspectRatio="xMidYMid meet" viewBox="0 0 640 640" width="200" height="200"><defs><path d="M352.4 2.28L364.9 4.02L377.25 6.24L389.42 8.93L401.41 12.07L413.2 15.66L424.8 19.69L436.17 24.14L447.33 29.01L458.25 34.29L468.93 39.96L479.35 46.02L489.51 52.46L499.39 59.27L508.99 66.43L518.3 73.94L527.3 81.79L535.99 89.96L544.35 98.45L552.38 107.25L560.06 116.35L567.38 125.74L574.34 135.4L580.93 145.34L587.13 155.53L592.93 165.97L598.33 176.64L603.31 187.55L607.86 198.67L611.98 210.01L615.65 221.54L618.87 233.26L621.62 245.16L623.89 257.23L625.67 269.46L626.96 281.84L627.74 294.35L628 307L627.74 319.65L626.96 332.16L625.67 344.54L623.89 356.77L621.62 368.84L618.87 380.74L615.65 392.46L611.98 403.99L607.86 415.33L603.31 426.45L598.33 437.36L592.93 448.03L587.13 458.47L580.93 468.66L574.34 478.6L567.38 488.26L560.06 497.65L552.38 506.75L544.35 515.55L535.99 524.04L527.3 532.21L518.3 540.06L508.99 547.57L499.39 554.73L489.51 561.54L479.35 567.98L468.93 574.04L458.25 579.71L447.33 584.99L436.17 589.86L424.8 594.31L413.2 598.34L401.41 601.93L389.42 605.07L377.25 607.76L364.9 609.98L352.4 611.72L339.74 612.98L326.93 613.74L314 614L301.07 613.74L288.26 612.98L275.6 611.72L263.1 609.98L250.75 607.76L238.58 605.07L226.59 601.93L214.8 598.34L203.2 594.31L191.83 589.86L180.67 584.99L169.75 579.71L159.07 574.04L148.65 567.98L138.49 561.54L128.61 554.73L119.01 547.57L109.7 540.06L100.7 532.21L92.01 524.04L83.65 515.55L75.62 506.75L67.94 497.65L60.62 488.26L53.66 478.6L47.07 468.66L40.87 458.47L35.07 448.03L29.67 437.36L24.69 426.45L20.14 415.33L16.02 403.99L12.35 392.46L9.13 380.74L6.38 368.84L4.11 356.77L2.33 344.54L1.04 332.16L0.26 319.65L0 307L0.26 294.35L1.04 281.84L2.33 269.46L4.11 257.23L6.38 245.16L9.13 233.26L12.35 221.54L16.02 210.01L20.14 198.67L24.69 187.55L29.67 176.64L35.07 165.97L40.87 155.53L47.07 145.34L53.66 135.4L60.62 125.74L67.94 116.35L75.62 107.25L83.65 98.45L92.01 89.96L100.7 81.79L109.7 73.94L119.01 66.43L128.61 59.27L138.49 52.46L148.65 46.02L159.07 39.96L169.75 34.29L180.67 29.01L191.83 24.14L203.2 19.69L214.8 15.66L226.59 12.07L238.58 8.93L250.75 6.24L263.1 4.02L275.6 2.28L288.26 1.02L301.07 0.26L314 0L326.93 0.26L339.74 1.02L339.74 1.02L352.4 2.28ZM271.83 526.43L266.4 557.79L294.83 542.98L323.27 557.79L317.84 526.43L340.85 504.22L309.05 499.64L294.83 471.11L280.62 499.64L248.82 504.22L248.82 504.22L271.83 526.43ZM464.7 455.36L471.52 419.24L97.13 419.24L88.46 455.36L88.46 455.36L464.7 455.36ZM465.88 401.68L519.5 132.19L477.17 132.19L423.54 401.68L423.54 401.68L465.88 401.68ZM269.26 401.68L322.89 132.19L280.55 132.19L226.93 401.68L226.93 401.68L269.26 401.68ZM143.38 401.68L197.01 132.19L154.67 132.19L101.04 401.68L101.04 401.68L143.38 401.68ZM390.8 132.19L348.46 132.19L294.84 401.68L337.17 401.68L379.11 190.91L401.36 284.89L464.32 190.48L476.19 132.19L410.65 230.1L390.73 132.53L390.73 132.53L390.8 132.19ZM249.53 286.61L256.77 250.5L173.71 250.5L166.85 286.61L166.85 286.61L249.53 286.61Z" id="b4HaEknHaF"></path></defs><g><g><g><g><filter id="shadow9727759" x="-109" y="-109" width="854" height="846" filterUnits="userSpaceOnUse" primitiveUnits="userSpaceOnUse"><feFlood></feFlood><feComposite in2="SourceAlpha" operator="in"></feComposite><feGaussianBlur stdDeviation="6.71"></feGaussianBlur><feOffset dx="8" dy="14" result="afterOffset"></feOffset><feFlood flood-color="#000000" flood-opacity="0.5"></feFlood><feComposite in2="afterOffset" operator="in"></feComposite><feMorphology operator="dilate" radius="0"></feMorphology><feComposite in2="SourceAlpha" operator="out"></feComposite></filter><path d="M352.4 2.28L364.9 4.02L377.25 6.24L389.42 8.93L401.41 12.07L413.2 15.66L424.8 19.69L436.17 24.14L447.33 29.01L458.25 34.29L468.93 39.96L479.35 46.02L489.51 52.46L499.39 59.27L508.99 66.43L518.3 73.94L527.3 81.79L535.99 89.96L544.35 98.45L552.38 107.25L560.06 116.35L567.38 125.74L574.34 135.4L580.93 145.34L587.13 155.53L592.93 165.97L598.33 176.64L603.31 187.55L607.86 198.67L611.98 210.01L615.65 221.54L618.87 233.26L621.62 245.16L623.89 257.23L625.67 269.46L626.96 281.84L627.74 294.35L628 307L627.74 319.65L626.96 332.16L625.67 344.54L623.89 356.77L621.62 368.84L618.87 380.74L615.65 392.46L611.98 403.99L607.86 415.33L603.31 426.45L598.33 437.36L592.93 448.03L587.13 458.47L580.93 468.66L574.34 478.6L567.38 488.26L560.06 497.65L552.38 506.75L544.35 515.55L535.99 524.04L527.3 532.21L518.3 540.06L508.99 547.57L499.39 554.73L489.51 561.54L479.35 567.98L468.93 574.04L458.25 579.71L447.33 584.99L436.17 589.86L424.8 594.31L413.2 598.34L401.41 601.93L389.42 605.07L377.25 607.76L364.9 609.98L352.4 611.72L339.74 612.98L326.93 613.74L314 614L301.07 613.74L288.26 612.98L275.6 611.72L263.1 609.98L250.75 607.76L238.58 605.07L226.59 601.93L214.8 598.34L203.2 594.31L191.83 589.86L180.67 584.99L169.75 579.71L159.07 574.04L148.65 567.98L138.49 561.54L128.61 554.73L119.01 547.57L109.7 540.06L100.7 532.21L92.01 524.04L83.65 515.55L75.62 506.75L67.94 497.65L60.62 488.26L53.66 478.6L47.07 468.66L40.87 458.47L35.07 448.03L29.67 437.36L24.69 426.45L20.14 415.33L16.02 403.99L12.35 392.46L9.13 380.74L6.38 368.84L4.11 356.77L2.33 344.54L1.04 332.16L0.26 319.65L0 307L0.26 294.35L1.04 281.84L2.33 269.46L4.11 257.23L6.38 245.16L9.13 233.26L12.35 221.54L16.02 210.01L20.14 198.67L24.69 187.55L29.67 176.64L35.07 165.97L40.87 155.53L47.07 145.34L53.66 135.4L60.62 125.74L67.94 116.35L75.62 107.25L83.65 98.45L92.01 89.96L100.7 81.79L109.7 73.94L119.01 66.43L128.61 59.27L138.49 52.46L148.65 46.02L159.07 39.96L169.75 34.29L180.67 29.01L191.83 24.14L203.2 19.69L214.8 15.66L226.59 12.07L238.58 8.93L250.75 6.24L263.1 4.02L275.6 2.28L288.26 1.02L301.07 0.26L314 0L326.93 0.26L339.74 1.02L339.74 1.02L352.4 2.28ZM271.83 526.43L266.4 557.79L294.83 542.98L323.27 557.79L317.84 526.43L340.85 504.22L309.05 499.64L294.83 471.11L280.62 499.64L248.82 504.22L248.82 504.22L271.83 526.43ZM464.7 455.36L471.52 419.24L97.13 419.24L88.46 455.36L88.46 455.36L464.7 455.36ZM465.88 401.68L519.5 132.19L477.17 132.19L423.54 401.68L423.54 401.68L465.88 401.68ZM269.26 401.68L322.89 132.19L280.55 132.19L226.93 401.68L226.93 401.68L269.26 401.68ZM143.38 401.68L197.01 132.19L154.67 132.19L101.04 401.68L101.04 401.68L143.38 401.68ZM390.8 132.19L348.46 132.19L294.84 401.68L337.17 401.68L379.11 190.91L401.36 284.89L464.32 190.48L476.19 132.19L410.65 230.1L390.73 132.53L390.73 132.53L390.8 132.19ZM249.53 286.61L256.77 250.5L173.71 250.5L166.85 286.61L166.85 286.61L249.53 286.61Z" id="i27lX4BFap" fill="white" fill-opacity="1" filter="url(#shadow9727759)"></path></g><use xlink:href="#b4HaEknHaF" opacity="0.37" fill="#471ae2" fill-opacity="1"></use></g></g></g></svg>